# xmcd CD database file
#
# Track frame offsets:
#	150
#	4915
#	17997
#	31522
#	43688
#	54675
#	71686
#	88237
#	108930
#	118330
#	124831
#	135643
#	148989
#	163530
#	182229
#	197458
#	211623
#	225720
#	239103
#	256744
#	267355
#	280166
#	293347
#	306072
#	317647
#	330298
#
# Disc length: 4680 seconds
#
# Revision: 0
# Processed by: cddbd v1.5.2PL0 Copyright (c) Steve Scherf et al.
# Submitted via: CDex 1.51
#
DISCID=7812461a
DTITLE=Red Meat - Live At The World's Smallest Honky Tonk
DYEAR=2010
DGENRE=Country
TTITLE0=Intro
TTITLE1=Above and Beyond
TTITLE2=City Slicker
TTITLE3=Texas Texas
TTITLE4=Go On Home, Mr. Johnson
TTITLE5=Midwest Blues
TTITLE6=Thriftstore Cowgirl
TTITLE7=Motorcycle Cowboy
TTITLE8=Truck Drivin' Man
TTITLE9=Jill and Smelley discuss the Summer of Love
TTITLE10=Baby Beats Me the Best
TTITLE11=Moonrock
TTITLE12=Honky Tonk Habit
TTITLE13=Queen of King City
TTITLE14=High Maintenance Babe
TTITLE15=Kiss the Children
TTITLE16=Big River
TTITLE17=The Memory of Your Smile
TTITLE18=California Blues
TTITLE19=12 Inch 3-Speed Oscillating Fan
TTITLE20=Lolita
TTITLE21=14 Hours From Tulsa
TTITLE22=Highway of Heartaches
TTITLE23=I'm Gonna Leave Here Shoutin'
TTITLE24=Ring of Fire
TTITLE25=Sparklin' Brown Eyes
EXTD=YEAR: 2010
EXTT0=
EXTT1=
EXTT2=
EXTT3=
EXTT4=
EXTT5=
EXTT6=
EXTT7=
EXTT8=
EXTT9=
EXTT10=
EXTT11=
EXTT12=
EXTT13=
EXTT14=
EXTT15=
EXTT16=
EXTT17=
EXTT18=
EXTT19=
EXTT20=
EXTT21=
EXTT22=
EXTT23=
EXTT24=
EXTT25=
PLAYORDER=
